<svg version="1.1" id="Layer_1" xmlns="http://www.w3.org/2000/svg" xmlns:xlink="http://www.w3.org/1999/xlink" x="0px" y="0px"
	 width="100%" viewBox="0 0 770 239" enable-background="new 0 0 770 239" xml:space="preserve">
<path fill="#E7E8EA" opacity="1.000000" stroke="none" 
	d="
M587.000000,240.000000 
	C391.333344,240.000000 196.166718,240.000000 1.000052,240.000000 
	C1.000035,160.333359 1.000035,80.666733 1.000017,1.000074 
	C257.666595,1.000049 514.333191,1.000049 770.999878,1.000025 
	C770.999878,80.666595 770.999878,160.333191 770.999939,239.999893 
	C709.833313,240.000000 648.666687,240.000000 587.000000,240.000000 
M643.983765,223.249054 
	C643.531555,222.413773 643.079407,221.578476 642.409790,219.986450 
	C642.468384,218.689621 642.526917,217.392807 643.281433,215.573883 
	C643.522583,213.465271 643.973083,211.356812 643.974426,209.248047 
	C644.012146,148.682892 643.993958,88.117706 644.032166,27.552563 
	C644.034485,23.921219 644.596252,20.286911 644.526184,16.661152 
	C644.508545,15.746533 643.055725,14.859632 641.513672,13.764554 
	C641.007629,13.681537 640.501526,13.598519 640.236023,12.964357 
	C639.955261,12.648106 639.675720,12.056594 639.393494,12.055270 
	C627.933533,12.001479 616.473145,11.986069 605.013489,12.058508 
	C604.633057,12.060912 604.258667,13.022222 603.173523,13.755722 
	C602.605103,14.170575 602.036682,14.585428 600.803894,15.353233 
	C600.535095,16.937525 600.032166,18.521679 600.031250,20.106133 
	C599.992126,86.669937 599.990051,153.233765 600.040710,219.797562 
	C600.042053,221.530563 600.679016,223.263092 601.170837,225.732162 
	C604.588501,226.488312 607.992554,227.810638 611.426453,227.893539 
	C621.383911,228.133942 631.453674,228.852112 641.305847,224.793167 
	C641.305847,224.793167 641.616577,224.890396 642.295898,224.904434 
	C642.863953,224.602554 643.431946,224.300674 643.983765,223.249054 
M150.085526,28.054947 
	C150.085526,28.054947 150.168304,28.111324 149.410324,28.129799 
	C145.621368,29.166523 145.925522,32.169289 146.022461,35.022053 
	C146.022461,35.022053 146.105576,35.026455 145.584259,35.382542 
	C145.438599,35.976295 145.292938,36.570045 145.179321,37.062973 
	C145.179321,37.062973 145.232559,37.154400 144.488968,37.176006 
	C142.674637,41.442867 139.924667,45.566280 139.243881,50.006927 
	C137.893051,58.817963 137.186493,67.798866 137.095703,76.718544 
	C136.831268,102.692329 136.839569,128.672150 137.095062,154.646118 
	C137.177872,163.065094 138.201752,171.489166 139.070007,179.882477 
	C140.194122,190.749207 142.972885,201.174271 149.272522,210.270264 
	C150.473083,212.003769 153.111862,212.741196 155.005554,213.991974 
	C155.005554,213.991974 155.060822,213.911438 155.023315,214.752197 
	C155.092728,216.339325 155.162125,217.926453 155.214310,219.119720 
	C158.608566,219.805588 161.391678,220.367966 164.593842,220.955414 
	C164.593842,220.955414 164.995819,221.076477 165.138229,221.756042 
	C166.612503,222.740540 167.990814,223.928391 169.576508,224.676819 
	C180.582458,229.871490 192.238861,227.974121 203.716888,227.478699 
	C206.182434,227.372284 208.588074,225.878357 211.838608,225.005325 
	C216.326370,224.433472 221.131592,224.460678 223.801971,219.024689 
	C230.588043,217.373627 233.859009,211.523758 236.983490,206.451355 
	C243.034805,196.627441 245.811340,185.380157 245.892807,173.882965 
	C246.159088,136.292877 246.093002,98.699265 245.915207,61.108139 
	C245.875534,52.719234 244.912964,44.337372 240.750153,36.705879 
	C239.131821,33.739105 238.332001,30.128557 236.168518,27.690479 
	C226.608063,16.916513 215.030777,9.828017 200.037781,10.146263 
	C198.347549,10.182140 196.679550,11.266037 194.332535,11.953298 
	C193.886322,11.911527 193.440125,11.869757 192.754517,11.088241 
	C191.226532,10.725503 189.643555,9.903943 188.180069,10.079360 
	C181.804718,10.843533 175.489349,12.297054 169.101669,12.700727 
	C165.099060,12.953673 162.987976,14.444081 162.016266,18.029982 
	C162.016266,18.029982 162.100342,18.041168 161.664444,18.191160 
	C161.383163,18.338577 161.168518,18.552755 160.544556,18.944109 
	C160.544556,18.944109 160.062820,19.025637 159.342560,19.026016 
	C158.579559,19.717821 157.816559,20.409626 157.006989,21.023558 
	C157.006989,21.023558 157.091064,21.057693 156.309387,21.025408 
	C152.379059,21.186413 150.757355,23.319166 151.041260,27.049362 
	C151.041260,27.049362 151.137558,27.054115 150.649567,27.275957 
	C150.454727,27.568298 150.259872,27.860640 150.085526,28.054947 
M80.431763,37.474613 
	C79.678917,42.029858 78.926071,46.585102 78.214622,51.764759 
	C78.121719,52.166386 78.028824,52.568008 77.228645,53.136700 
	C76.440765,54.694424 75.325020,56.172623 74.924393,57.824284 
	C73.532883,63.561073 72.389549,69.358055 71.151817,75.132141 
	C70.703217,75.111328 70.254623,75.090515 69.806023,75.069702 
	C69.538399,73.210602 68.997421,71.343269 69.053185,69.493919 
	C69.237930,63.366791 69.844597,57.248356 69.909843,51.122540 
	C70.027863,40.041245 69.996483,28.953676 69.697784,17.877617 
	C69.652397,16.194492 67.835884,14.559130 66.255165,12.362494 
	C52.838673,12.254932 39.422180,12.147370 25.414268,12.528415 
	C24.943474,14.751997 24.078913,16.973007 24.064381,19.199570 
	C23.951376,36.511429 24.002510,53.824364 24.002224,71.136963 
	C24.001411,120.244820 23.979944,169.352722 24.078253,218.460373 
	C24.081945,220.304535 25.247383,222.146378 26.232040,224.338684 
	C26.486971,224.555466 26.741901,224.772247 27.359970,225.635880 
	C29.613178,226.424225 31.847363,227.821533 34.122982,227.892593 
	C42.723694,228.161285 51.349659,228.256195 59.940659,227.861191 
	C62.999535,227.720535 65.985764,226.000031 69.339348,224.234909 
	C69.559937,222.275879 69.968307,220.317215 69.972359,218.357742 
	C70.018021,196.259094 69.998352,174.160339 70.006882,152.061600 
	C70.007759,149.784149 69.480644,147.186295 72.892403,147.169342 
	C72.892403,147.169342 72.450478,147.295654 72.178604,148.196030 
	C74.430847,158.451111 76.735428,168.695053 78.921555,178.964203 
	C81.424767,190.722809 83.824287,202.503510 86.265419,214.275314 
	C86.870277,217.192093 87.211014,220.198303 88.175552,222.989807 
	C88.596764,224.208862 90.211258,225.738602 91.405678,225.852768 
	C100.708786,226.741974 110.037163,227.712402 119.367203,227.817612 
	C123.568588,227.864990 127.791595,225.994400 132.662216,224.831589 
	C133.115448,223.732178 134.114700,222.528046 133.927429,221.551453 
	C133.114456,217.311905 132.009964,213.124374 130.911880,208.944092 
	C127.710114,196.755356 124.460648,184.579163 121.406082,172.261887 
	C121.406082,172.261887 121.328773,172.053055 121.293861,171.206726 
	C117.563057,156.765610 113.832260,142.324509 110.073502,127.967674 
	C110.073502,127.967674 110.157402,127.938591 110.158958,127.292480 
	C110.070183,126.875046 109.981407,126.457611 109.928673,125.448723 
	C109.683701,124.932434 109.438736,124.416145 109.200241,123.078148 
	C108.672897,116.959862 105.763214,111.381821 107.598801,104.654472 
	C112.256775,87.583290 115.903526,70.236198 120.279144,52.313015 
	C123.194321,40.569927 126.157471,28.838190 128.944107,17.064678 
	C129.198654,15.989264 128.322418,14.646213 127.633575,12.773623 
	C127.210320,12.538195 126.793472,12.109861 126.362862,12.095542 
	C115.481674,11.733666 104.600082,11.297406 93.715675,11.201435 
	C91.829468,11.184804 89.930267,12.640551 87.578369,13.759289 
	C87.411606,13.852261 87.244835,13.945232 86.316505,14.119146 
	C85.616547,14.736186 84.417351,15.267261 84.294006,15.983590 
	C83.090950,22.970125 82.067673,29.987617 80.431763,37.474613 
M464.610809,48.026955 
	C464.610809,36.754776 464.610809,25.482597 464.610809,14.080084 
	C436.260864,14.080084 408.390808,14.080084 380.543762,14.080084 
	C380.543762,84.421402 380.543762,154.418365 380.543762,224.480103 
	C409.552246,224.480103 438.138580,224.480103 466.913330,224.480103 
	C466.913330,210.849350 466.913330,197.486145 466.913330,183.645004 
	C452.174957,183.645004 437.769226,183.645004 423.392273,183.645004 
	C423.392273,167.421555 423.392273,151.680634 423.392273,135.524506 
	C436.647949,135.524506 449.586487,135.524506 462.706848,135.524506 
	C462.706848,122.201324 462.706848,109.298393 462.706848,95.830284 
	C449.430786,95.830284 436.383698,95.830284 423.403748,95.830284 
	C423.403748,81.703003 423.403748,68.144203 423.403748,54.192310 
	C425.549988,54.192310 427.354950,54.194153 429.159943,54.192005 
	C439.487305,54.179729 449.814728,54.181564 460.141998,54.143539 
	C462.891541,54.133419 465.770325,54.127232 464.510345,49.418304 
	C464.446411,49.250473 464.382507,49.082645 464.610809,48.026955 
M363.217621,103.108818 
	C362.510681,102.894859 361.803772,102.680901 360.301331,102.232338 
	C344.351929,102.232338 328.402496,102.232338 312.219940,102.232338 
	C312.219940,114.444855 312.219940,126.186516 312.219940,138.401520 
	C315.801788,138.401520 319.216766,138.401520 322.588257,138.401520 
	C322.588257,151.637909 322.616455,164.401321 322.545166,177.164185 
	C322.537933,178.456818 321.996887,179.767227 321.590515,181.033096 
	C320.154388,185.506592 317.141724,187.923553 312.358307,187.959732 
	C307.633972,187.995453 304.187225,185.917114 302.994446,181.311356 
	C302.002380,177.480560 301.188934,173.472900 301.173767,169.540207 
	C301.040222,134.886185 301.064148,100.231255 301.177826,65.577049 
	C301.187439,62.646626 301.815216,59.585861 302.809570,56.820747 
	C304.475342,52.188507 308.989288,49.828491 314.046600,50.334770 
	C319.060547,50.836704 321.363556,54.124531 321.912781,58.630451 
	C322.494904,63.406170 322.632477,68.243759 322.799042,73.060036 
	C322.934692,76.983017 322.826569,80.914421 322.826569,84.793243 
	C336.868805,84.793243 350.270111,84.793243 364.015594,84.793243 
	C363.845428,69.956047 363.168762,55.527309 358.654694,41.599163 
	C353.406647,25.406269 342.416138,15.457979 325.467194,12.972281 
	C318.599426,11.965063 311.514648,11.714931 304.574707,12.056633 
	C282.723724,13.132506 267.404816,25.898033 262.143982,47.108112 
	C260.987640,51.770084 259.985931,56.614380 259.939880,61.384632 
	C259.616791,94.866638 259.361237,128.352386 259.551605,161.834274 
	C259.605286,171.270889 260.447968,180.849106 262.256409,190.102936 
	C268.263733,220.842834 297.054260,235.928574 323.704895,222.196716 
	C329.813202,219.049377 334.623444,213.382675 340.064819,208.847321 
	C340.584198,210.093231 341.471558,212.184998 342.330414,214.288391 
	C346.602997,224.752777 346.601196,224.814041 358.152588,224.658630 
	C359.833710,224.636032 361.502869,223.719803 363.000580,223.120880 
	C363.000580,223.120880 363.190216,223.170197 363.531342,223.080994 
	C363.531342,223.080994 363.863068,222.961472 364.191895,222.778030 
	C364.074158,222.508377 363.956451,222.238708 363.570892,221.067993 
	C363.556854,184.002625 363.547607,146.937256 363.515564,109.871895 
	C363.513855,107.890907 363.320404,105.910080 363.217621,103.108818 
M523.201111,222.778152 
	C523.083862,222.509232 522.966614,222.240295 522.622559,221.060959 
	C522.556396,189.169449 522.490295,157.277924 522.916931,125.374718 
	C523.209351,125.203079 523.524597,125.130402 523.930054,125.962234 
	C530.284058,157.789719 536.679565,189.609070 542.921692,221.458466 
	C543.484009,224.327774 544.830994,224.779037 547.339111,224.758133 
	C558.833801,224.662308 570.329712,224.731369 581.825073,224.697067 
	C582.768982,224.694260 583.711853,224.360092 584.655762,224.179779 
	C584.655762,154.037277 584.655762,84.126892 584.655762,14.109989 
	C571.053406,14.109989 557.700684,14.109989 543.945496,14.109989 
	C543.945496,45.810455 543.945496,77.128838 543.945496,108.447220 
	C543.614258,108.485992 543.282959,108.524765 542.951721,108.563538 
	C536.903809,77.013428 530.855896,45.463322 524.850037,14.132625 
	C510.031281,14.132625 495.810486,14.132625 481.537231,14.132625 
	C481.537231,84.412529 481.537231,154.298141 481.537231,224.739044 
	C494.773956,224.739044 507.722900,224.768158 520.670776,224.663361 
	C521.410950,224.657364 522.142273,223.557297 523.201111,222.778152 
M720.499939,224.734726 
	C728.952515,224.734726 737.405151,224.734726 745.947754,224.734726 
	C745.947754,210.787552 745.947754,197.430389 745.947754,183.599670 
	C731.158447,183.599670 716.756104,183.599670 702.463257,183.599670 
	C702.463257,167.387756 702.463257,151.657242 702.463257,135.482971 
	C715.739136,135.482971 728.669128,135.482971 741.695801,135.482971 
	C741.695801,122.127991 741.695801,109.225037 741.695801,95.731384 
	C728.380127,95.731384 715.337891,95.731384 702.499634,95.731384 
	C702.499634,81.568657 702.499634,68.001823 702.499634,53.898952 
	C716.440125,53.898952 729.984680,53.898952 743.451782,53.898952 
	C743.451782,40.263920 743.451782,27.177675 743.451782,14.107843 
	C715.260742,14.107843 687.385498,14.107843 659.626343,14.107843 
	C659.626343,84.491272 659.626343,154.494675 659.626343,224.734711 
	C679.879639,224.734711 699.689758,224.734711 720.499939,224.734726 
z"/>
<path fill="#2C2C2C" opacity="1.000000" stroke="none" 
	d="
M522.424133,125.386414 
	C522.490295,157.277924 522.556396,189.169449 522.650330,221.767578 
	C522.744629,222.638260 522.811157,222.802353 522.877686,222.966431 
	C522.142273,223.557297 521.410950,224.657364 520.670776,224.663361 
	C507.722900,224.768158 494.773956,224.739044 481.537231,224.739044 
	C481.537231,154.298141 481.537231,84.412529 481.537231,14.132625 
	C495.810486,14.132625 510.031281,14.132625 524.850037,14.132625 
	C530.855896,45.463322 536.903809,77.013428 542.951721,108.563538 
	C543.282959,108.524765 543.614258,108.485992 543.945496,108.447220 
	C543.945496,77.128838 543.945496,45.810455 543.945496,14.109989 
	C557.700684,14.109989 571.053406,14.109989 584.655762,14.109989 
	C584.655762,84.126892 584.655762,154.037277 584.655762,224.179779 
	C583.711853,224.360092 582.768982,224.694260 581.825073,224.697067 
	C570.329712,224.731369 558.833801,224.662308 547.339111,224.758133 
	C544.830994,224.779037 543.484009,224.327774 542.921692,221.458466 
	C536.679565,189.609070 530.284058,157.789719 523.980469,125.206070 
	C523.660095,123.299362 523.289246,122.148811 522.918396,120.998268 
	C522.603455,121.069427 522.288513,121.140594 521.973633,121.211761 
	C522.123779,122.603310 522.273987,123.994858 522.424133,125.386414 
z"/>
<path fill="#2C2C2C" opacity="1.000000" stroke="none" 
	d="
M363.177551,223.217087 
	C361.502869,223.719803 359.833710,224.636032 358.152588,224.658630 
	C346.601196,224.814041 346.602997,224.752777 342.330414,214.288391 
	C341.471558,212.184998 340.584198,210.093231 340.064819,208.847321 
	C334.623444,213.382675 329.813202,219.049377 323.704895,222.196716 
	C297.054260,235.928574 268.263733,220.842834 262.256409,190.102936 
	C260.447968,180.849106 259.605286,171.270889 259.551605,161.834274 
	C259.361237,128.352386 259.616791,94.866638 259.939880,61.384632 
	C259.985931,56.614380 260.987640,51.770084 262.143982,47.108112 
	C267.404816,25.898033 282.723724,13.132506 304.574707,12.056633 
	C311.514648,11.714931 318.599426,11.965063 325.467194,12.972281 
	C342.416138,15.457979 353.406647,25.406269 358.654694,41.599163 
	C363.168762,55.527309 363.845428,69.956047 364.015594,84.793243 
	C350.270111,84.793243 336.868805,84.793243 322.826569,84.793243 
	C322.826569,80.914421 322.934692,76.983017 322.799042,73.060036 
	C322.632477,68.243759 322.494904,63.406170 321.912781,58.630451 
	C321.363556,54.124531 319.060547,50.836704 314.046600,50.334770 
	C308.989288,49.828491 304.475342,52.188507 302.809570,56.820747 
	C301.815216,59.585861 301.187439,62.646626 301.177826,65.577049 
	C301.064148,100.231255 301.040222,134.886185 301.173767,169.540207 
	C301.188934,173.472900 302.002380,177.480560 302.994446,181.311356 
	C304.187225,185.917114 307.633972,187.995453 312.358307,187.959732 
	C317.141724,187.923553 320.154388,185.506592 321.590515,181.033096 
	C321.996887,179.767227 322.537933,178.456818 322.545166,177.164185 
	C322.616455,164.401321 322.588257,151.637909 322.588257,138.401520 
	C319.216766,138.401520 315.801788,138.401520 312.219940,138.401520 
	C312.219940,126.186516 312.219940,114.444855 312.219940,102.232338 
	C328.402496,102.232338 344.351929,102.232338 360.830383,102.678467 
	C361.978363,103.392792 362.597290,103.660980 363.216217,103.929176 
	C363.320404,105.910080 363.513855,107.890907 363.515564,109.871895 
	C363.547607,146.937256 363.556854,184.002625 363.620239,221.768860 
	C363.734039,222.633636 363.798553,222.797546 363.863068,222.961472 
	C363.863068,222.961472 363.531342,223.080994 363.272278,223.008423 
	C362.940704,222.883591 362.868225,222.831360 362.795715,222.779129 
	C362.923004,222.925125 363.050262,223.071106 363.177551,223.217087 
z"/>
<path fill="#4A5ABA" opacity="1.000000" stroke="none" 
	d="
M109.193764,123.899857 
	C109.438736,124.416145 109.683701,124.932434 109.713242,125.909225 
	C109.717674,126.892685 109.937538,127.415634 110.157402,127.938591 
	C110.157402,127.938591 110.073502,127.967674 110.051376,128.362976 
	C109.975731,131.541016 109.336205,134.468796 109.982201,137.078369 
	C111.694809,143.996613 113.850677,150.813705 116.047951,157.600525 
	C117.626686,162.476822 119.555908,167.239624 121.328773,172.053055 
	C121.328773,172.053055 121.406082,172.261887 121.259628,172.799713 
	C121.570465,177.439987 121.582253,181.654739 122.582130,185.620392 
	C124.401970,192.838165 126.815514,199.905914 128.953674,207.044525 
	C129.091949,207.506149 128.941818,208.046280 129.015259,208.536499 
	C129.479050,211.632034 129.666946,214.810791 130.528625,217.793747 
	C131.502853,221.166336 130.134918,222.902527 127.141579,222.865814 
	C116.353134,222.733551 105.566750,222.321091 94.786270,221.858673 
	C93.885841,221.820053 92.524490,220.781128 92.249298,219.926239 
	C90.995323,216.030853 89.903473,212.067490 89.038002,208.066971 
	C88.026161,203.389847 87.536171,198.594269 86.417496,193.946930 
	C84.100471,184.321213 81.356117,174.797531 79.086212,165.161530 
	C76.511055,154.229645 74.333824,143.204254 71.791382,132.264191 
	C71.432533,130.720078 69.984848,129.429001 69.016647,128.021393 
	C68.992142,128.021973 68.974030,127.977051 68.982529,127.636398 
	C68.547935,126.474609 68.104836,125.653488 67.661736,124.832359 
	C67.121964,125.884590 66.582191,126.936821 65.793785,128.249863 
	C65.698830,132.137451 65.980476,135.764038 65.985695,139.391022 
	C66.023109,165.383118 66.060448,191.375702 65.884712,217.366669 
	C65.872185,219.219620 64.200882,222.643738 63.241661,222.664993 
	C52.778145,222.896820 42.302082,222.631317 31.831131,222.417953 
	C28.613230,222.352371 27.930794,220.384415 27.934034,217.402512 
	C28.005198,151.922318 28.003965,86.442017 27.952692,20.961796 
	C27.949379,16.731169 29.663105,14.897241 33.918934,14.958249 
	C42.581226,15.082423 51.255913,15.240087 59.906937,14.904930 
	C64.856392,14.713179 66.136742,16.601915 66.096710,21.292368 
	C65.901909,44.117188 65.981819,66.944580 66.037865,89.770889 
	C66.042648,91.717613 66.586510,93.663017 66.879936,95.609032 
	C67.551056,95.363014 68.222183,95.116997 68.877686,94.520576 
	C69.192909,93.086189 69.523750,92.002197 70.221207,90.883255 
	C71.722298,88.436768 73.285385,86.131248 73.912910,83.594315 
	C76.009270,75.119316 77.919762,66.589958 79.558762,58.015919 
	C79.984550,55.788486 79.161034,53.322239 78.926514,50.633747 
	C79.059937,49.876553 79.178192,49.451294 79.620491,48.922356 
	C82.220810,44.448154 85.257294,40.232246 82.775261,34.572937 
	C82.885948,33.840057 82.997864,33.428478 83.477074,32.948174 
	C84.570496,31.374895 85.717041,29.933743 85.955040,28.355574 
	C87.595146,17.480024 90.315247,15.006433 101.101242,15.004806 
	C107.251198,15.003878 113.401169,14.998054 119.551117,15.003714 
	C126.890091,15.010469 127.954468,17.668858 125.725952,24.711210 
	C122.809326,33.928085 121.183792,43.553520 118.849518,53.330215 
	C116.800362,59.899555 114.636871,66.075562 113.070015,72.399399 
	C110.575912,82.465645 108.890953,92.746689 106.074577,102.713890 
	C104.093735,109.724129 106.043594,116.109322 107.279678,122.703613 
	C107.373543,123.204361 108.530800,123.505783 109.193764,123.899857 
z"/>
<path fill="#2C2C2D" opacity="1.000000" stroke="none" 
	d="
M719.999878,224.734711 
	C699.689758,224.734711 679.879639,224.734711 659.626343,224.734711 
	C659.626343,154.494675 659.626343,84.491272 659.626343,14.107843 
	C687.385498,14.107843 715.260742,14.107843 743.451782,14.107843 
	C743.451782,27.177675 743.451782,40.263920 743.451782,53.898952 
	C729.984680,53.898952 716.440125,53.898952 702.499634,53.898952 
	C702.499634,68.001823 702.499634,81.568657 702.499634,95.731384 
	C715.337891,95.731384 728.380127,95.731384 741.695801,95.731384 
	C741.695801,109.225037 741.695801,122.127991 741.695801,135.482971 
	C728.669128,135.482971 715.739136,135.482971 702.463257,135.482971 
	C702.463257,151.657242 702.463257,167.387756 702.463257,183.599670 
	C716.756104,183.599670 731.158447,183.599670 745.947754,183.599670 
	C745.947754,197.430389 745.947754,210.787552 745.947754,224.734726 
	C737.405151,224.734726 728.952515,224.734726 719.999878,224.734711 
z"/>
<path fill="#2C2C2C" opacity="1.000000" stroke="none" 
	d="
M464.297119,49.913074 
	C465.770325,54.127232 462.891541,54.133419 460.141998,54.143539 
	C449.814728,54.181564 439.487305,54.179729 429.159943,54.192005 
	C427.354950,54.194153 425.549988,54.192310 423.403748,54.192310 
	C423.403748,68.144203 423.403748,81.703003 423.403748,95.830284 
	C436.383698,95.830284 449.430786,95.830284 462.706848,95.830284 
	C462.706848,109.298393 462.706848,122.201324 462.706848,135.524506 
	C449.586487,135.524506 436.647949,135.524506 423.392273,135.524506 
	C423.392273,151.680634 423.392273,167.421555 423.392273,183.645004 
	C437.769226,183.645004 452.174957,183.645004 466.913330,183.645004 
	C466.913330,197.486145 466.913330,210.849350 466.913330,224.480103 
	C438.138580,224.480103 409.552246,224.480103 380.543762,224.480103 
	C380.543762,154.418365 380.543762,84.421402 380.543762,14.080084 
	C408.390808,14.080084 436.260864,14.080084 464.610809,14.080084 
	C464.610809,25.482597 464.610809,36.754776 464.285034,48.568092 
	C463.875732,49.212967 463.710358,49.397717 463.720917,49.408398 
	C463.900024,49.589451 464.100983,49.748863 464.297119,49.913074 
z"/>
<path fill="#5964A7" opacity="1.000000" stroke="none" 
	d="
M68.893303,94.870972 
	C68.222183,95.116997 67.551056,95.363014 66.879936,95.609032 
	C66.586510,93.663017 66.042648,91.717613 66.037865,89.770889 
	C65.981819,66.944580 65.901909,44.117188 66.096710,21.292368 
	C66.136742,16.601915 64.856392,14.713179 59.906937,14.904930 
	C51.255913,15.240087 42.581226,15.082423 33.918934,14.958249 
	C29.663105,14.897241 27.949379,16.731169 27.952692,20.961796 
	C28.003965,86.442017 28.005198,151.922318 27.934034,217.402512 
	C27.930794,220.384415 28.613230,222.352371 31.831131,222.417953 
	C42.302082,222.631317 52.778145,222.896820 63.241661,222.664993 
	C64.200882,222.643738 65.872185,219.219620 65.884712,217.366669 
	C66.060448,191.375702 66.023109,165.383118 65.985695,139.391022 
	C65.980476,135.764038 65.698830,132.137451 66.135803,128.256165 
	C67.183243,128.018890 67.640038,128.036102 68.069809,128.517899 
	C68.031860,158.938385 68.027878,188.894333 67.994247,218.850220 
	C67.992020,220.835373 67.764015,222.820267 67.199219,224.804474 
	C53.503883,224.865448 40.250359,224.927231 26.996832,224.989029 
	C26.741901,224.772247 26.486971,224.555466 26.100151,223.698547 
	C25.973404,153.339722 25.978544,83.621040 26.392742,13.819908 
	C27.904036,13.632030 29.006273,13.526601 30.303616,13.497100 
	C30.498722,13.573027 30.885309,13.412170 31.349701,13.514250 
	C42.621128,13.539725 53.428169,13.463122 64.635704,13.521330 
	C68.555397,13.529644 67.848770,16.101267 67.851059,18.143671 
	C67.878052,42.188168 67.867096,66.232742 67.940208,90.277077 
	C67.944878,91.809326 68.561409,93.339714 68.893303,94.870972 
z"/>
<path fill="#5863A5" opacity="1.000000" stroke="none" 
	d="
M160.062820,19.025635 
	C160.062820,19.025637 160.544556,18.944109 161.037994,18.902031 
	C161.721069,18.587021 161.910706,18.314091 162.100342,18.041164 
	C162.100342,18.041168 162.016266,18.029982 162.342667,18.010872 
	C163.456924,17.766844 164.244766,17.541927 165.015533,17.663464 
	C163.994171,19.215286 163.084198,20.516983 161.968918,21.608984 
	C157.658432,25.829535 151.978134,29.268084 149.210892,34.315308 
	C143.959839,43.892780 141.217773,54.554115 142.029953,65.785255 
	C142.424072,71.235062 142.926224,76.694839 142.941376,82.151314 
	C143.029068,113.700775 142.957581,145.250641 143.004837,176.800262 
	C143.018814,186.132065 145.252640,194.873062 150.766449,202.560974 
	C154.471191,207.726517 158.297562,212.804855 162.004639,217.994324 
	C161.939774,218.066437 161.809631,218.210312 161.475647,218.132263 
	C159.114716,216.673279 157.087769,215.292358 155.060822,213.911438 
	C155.060822,213.911438 155.005554,213.991974 154.898376,213.657928 
	C144.224182,200.733276 140.224442,185.833237 140.142792,169.808411 
	C139.964691,134.846008 139.740067,99.876137 140.328217,64.922676 
	C140.484390,55.641705 143.519363,46.409172 145.232559,37.154400 
	C145.232559,37.154400 145.179321,37.062973 145.415222,36.934940 
	C145.802597,36.213425 145.954086,35.619938 146.105576,35.026455 
	C146.105576,35.026455 146.022461,35.022053 146.323792,34.858093 
	C147.806183,32.499863 148.987244,30.305592 150.168304,28.111324 
	C150.168304,28.111324 150.085526,28.054947 150.333191,28.009903 
	C150.766418,27.661278 150.951981,27.357697 151.137558,27.054115 
	C151.137558,27.054115 151.041260,27.049362 151.351562,26.918930 
	C153.471588,24.878229 155.281326,22.967964 157.091064,21.057697 
	C157.091064,21.057693 157.006989,21.023558 157.353638,21.017170 
	C158.487793,20.349068 159.275299,19.687351 160.062820,19.025635 
z"/>
<path fill="#D7DEF9" opacity="1.000000" stroke="none" 
	d="
M195.001251,11.863949 
	C196.679550,11.266037 198.347549,10.182140 200.037781,10.146263 
	C215.030777,9.828017 226.608063,16.916513 236.168518,27.690479 
	C238.332001,30.128557 239.131821,33.739105 240.750153,36.705879 
	C244.912964,44.337372 245.875534,52.719234 245.915207,61.108139 
	C246.093002,98.699265 246.159088,136.292877 245.892807,173.882965 
	C245.811340,185.380157 243.034805,196.627441 236.983490,206.451355 
	C233.859009,211.523758 230.588043,217.373627 223.364929,218.966476 
	C222.927887,218.908264 222.798859,218.757339 222.996490,218.491180 
	C225.557861,215.901077 227.921585,213.577103 230.305283,211.256714 
	C230.325256,211.260269 230.358322,211.285645 230.641663,211.106873 
	C239.876205,200.820251 243.606155,188.452255 243.768906,175.515701 
	C244.258759,136.582138 244.125732,97.636681 243.796341,58.699577 
	C243.709747,48.464123 240.713425,38.640373 234.613953,30.124308 
	C224.895294,16.555126 210.823547,12.273383 195.001251,11.863949 
z"/>
<path fill="#5560A6" opacity="1.000000" stroke="none" 
	d="
M194.666901,11.908625 
	C210.823547,12.273383 224.895294,16.555126 234.613953,30.124308 
	C240.713425,38.640373 243.709747,48.464123 243.796341,58.699577 
	C244.125732,97.636681 244.258759,136.582138 243.768906,175.515701 
	C243.606155,188.452255 239.876205,200.820251 230.542801,210.709320 
	C230.768906,208.670792 231.033218,206.628952 232.041504,205.067505 
	C238.481033,195.094940 242.130737,184.383148 242.038803,172.372025 
	C241.883484,152.076981 242.222961,131.776688 241.935944,111.484512 
	C241.657425,91.793098 243.438751,72.037880 240.911163,52.421810 
	C239.430740,40.932526 234.001556,31.284370 225.237869,23.466249 
	C218.428513,17.391592 209.935181,15.918907 201.577484,14.089812 
	C198.076874,13.323696 194.351013,13.163020 190.758224,13.342118 
	C185.490036,13.604731 180.249405,14.419767 174.990753,14.726595 
	C174.977982,14.271966 174.971481,14.090156 175.252731,13.633743 
	C181.358292,12.848756 187.176102,12.338371 192.993912,11.827986 
	C193.440125,11.869757 193.886322,11.911527 194.666901,11.908625 
z"/>
<path fill="#E1E5FA" opacity="1.000000" stroke="none" 
	d="
M144.860764,37.165203 
	C143.519363,46.409172 140.484390,55.641705 140.328217,64.922676 
	C139.740067,99.876137 139.964691,134.846008 140.142792,169.808411 
	C140.224442,185.833237 144.224182,200.733276 154.939148,213.631027 
	C153.111862,212.741196 150.473083,212.003769 149.272522,210.270264 
	C142.972885,201.174271 140.194122,190.749207 139.070007,179.882477 
	C138.201752,171.489166 137.177872,163.065094 137.095062,154.646118 
	C136.839569,128.672150 136.831268,102.692329 137.095703,76.718544 
	C137.186493,67.798866 137.893051,58.817963 139.243881,50.006927 
	C139.924667,45.566280 142.674637,41.442867 144.860764,37.165203 
z"/>
<path fill="#DFE7FC" opacity="1.000000" stroke="none" 
	d="
M25.983686,13.902359 
	C25.978544,83.621040 25.973404,153.339722 25.919853,223.523849 
	C25.247383,222.146378 24.081945,220.304535 24.078253,218.460373 
	C23.979944,169.352722 24.001411,120.244820 24.002224,71.136963 
	C24.002510,53.824364 23.951376,36.511429 24.064381,19.199570 
	C24.078913,16.973007 24.943474,14.751997 25.709351,12.594143 
	C25.997519,13.074035 25.990602,13.488196 25.983686,13.902359 
z"/>
<path fill="#EAF0FF" opacity="1.000000" stroke="none" 
	d="
M601.019531,224.995834 
	C600.679016,223.263092 600.042053,221.530563 600.040710,219.797562 
	C599.990051,153.233765 599.992126,86.669937 600.031250,20.106133 
	C600.032166,18.521679 600.535095,16.937525 601.219238,15.638376 
	C601.640625,83.616394 601.641602,151.309280 601.678772,219.002136 
	C601.679871,220.963150 602.063599,222.923981 601.956665,224.913757 
	C601.436096,224.960373 601.227844,224.978104 601.019531,224.995834 
z"/>
<path fill="#5D67A9" opacity="1.000000" stroke="none" 
	d="
M69.041153,128.020813 
	C69.984848,129.429001 71.432533,130.720078 71.791382,132.264191 
	C74.333824,143.204254 76.511055,154.229645 79.086212,165.161530 
	C81.356117,174.797531 84.100471,184.321213 86.417496,193.946930 
	C87.536171,198.594269 88.026161,203.389847 89.038002,208.066971 
	C89.903473,212.067490 90.995323,216.030853 92.249298,219.926239 
	C92.524490,220.781128 93.885841,221.820053 94.786270,221.858673 
	C105.566750,222.321091 116.353134,222.733551 127.141579,222.865814 
	C130.134918,222.902527 131.502853,221.166336 130.528625,217.793747 
	C129.666946,214.810791 129.479050,211.632034 129.015259,208.536499 
	C128.941818,208.046280 129.091949,207.506149 128.953674,207.044525 
	C126.815514,199.905914 124.401970,192.838165 122.582130,185.620392 
	C121.582253,181.654739 121.570465,177.439987 121.171524,172.867798 
	C124.460648,184.579163 127.710114,196.755356 130.911880,208.944092 
	C132.009964,213.124374 133.114456,217.311905 133.927429,221.551453 
	C134.114700,222.528046 133.115448,223.732178 131.869019,224.839035 
	C119.445694,224.822052 107.812248,224.632355 96.187363,224.866974 
	C92.355614,224.944305 90.699173,223.917038 89.851112,220.006912 
	C84.997971,197.630661 79.883347,175.310776 74.770081,152.991791 
	C74.318214,151.019455 73.238556,149.190964 72.450478,147.295654 
	C72.450478,147.295654 72.892403,147.169342 72.958969,146.630157 
	C71.697403,140.067581 70.369278,134.044205 69.041153,128.020813 
z"/>
<path fill="#EAF0FF" opacity="1.000000" stroke="none" 
	d="
M642.262451,13.959995 
	C643.055725,14.859632 644.508545,15.746533 644.526184,16.661152 
	C644.596252,20.286911 644.034485,23.921219 644.032166,27.552563 
	C643.993958,88.117706 644.012146,148.682892 643.974426,209.248047 
	C643.973083,211.356812 643.522583,213.465271 642.861633,215.409210 
	C642.408386,149.193985 642.374939,83.143456 642.475708,16.971874 
	C642.644165,16.735559 642.736633,16.596727 642.701355,16.509724 
	C642.615601,16.298441 642.470581,16.111221 642.295593,15.676288 
	C642.241760,15.438263 642.020996,15.003005 642.109619,14.748783 
	C642.219666,14.316375 642.241028,14.138186 642.262451,13.959995 
z"/>
<path fill="#4C549C" opacity="1.000000" stroke="none" 
	d="
M602.268921,224.884888 
	C602.063599,222.923981 601.679871,220.963150 601.678772,219.002136 
	C601.641602,151.309280 601.640625,83.616394 601.551392,15.461901 
	C602.036682,14.585428 602.605103,14.170575 603.998657,13.735680 
	C615.549500,13.806072 626.275208,13.896505 637.000488,14.242311 
	C636.999939,14.667907 636.999817,14.838128 636.531067,15.010605 
	C627.407959,15.009105 618.753418,14.999895 610.098938,15.003297 
	C603.013855,15.006083 603.006287,15.012745 603.005981,22.272007 
	C603.003601,86.514946 603.004089,150.757889 603.003723,215.000824 
	C603.003723,215.832977 603.056824,216.669113 602.994568,217.496567 
	C602.784668,220.287735 603.843384,222.030136 606.825073,222.136459 
	C615.273987,222.437775 623.722534,222.819153 632.174377,222.934464 
	C635.105347,222.974457 638.045593,222.326401 641.238342,221.995163 
	C641.666199,221.998352 641.837341,221.998993 642.109863,222.324921 
	C642.286621,223.097961 642.361938,223.545700 642.201599,224.189728 
	C641.849487,224.554153 641.733032,224.722275 641.616577,224.890396 
	C641.616577,224.890396 641.305847,224.793167 640.699646,224.794220 
	C627.485291,224.825134 614.877075,224.855011 602.268921,224.884888 
z"/>
<path fill="#DDE3FA" opacity="1.000000" stroke="none" 
	d="
M72.314545,147.745850 
	C73.238556,149.190964 74.318214,151.019455 74.770081,152.991791 
	C79.883347,175.310776 84.997971,197.630661 89.851112,220.006912 
	C90.699173,223.917038 92.355614,224.944305 96.187363,224.866974 
	C107.812248,224.632355 119.445694,224.822052 131.540298,224.920258 
	C127.791595,225.994400 123.568588,227.864990 119.367203,227.817612 
	C110.037163,227.712402 100.708786,226.741974 91.405678,225.852768 
	C90.211258,225.738602 88.596764,224.208862 88.175552,222.989807 
	C87.211014,220.198303 86.870277,217.192093 86.265419,214.275314 
	C83.824287,202.503510 81.424767,190.722809 78.921555,178.964203 
	C76.735428,168.695053 74.430847,158.451111 72.314545,147.745850 
z"/>
<path fill="#535CA1" opacity="1.000000" stroke="none" 
	d="
M642.008484,221.999634 
	C641.837341,221.998993 641.666199,221.998352 641.242065,221.527313 
	C640.959656,152.397263 640.930176,83.737587 641.180542,15.056286 
	C641.647278,15.024104 641.834167,15.013555 642.020996,15.003005 
	C642.020996,15.003005 642.241760,15.438263 642.211548,15.970416 
	C642.234741,16.699354 642.288147,16.896139 642.341492,17.092924 
	C642.374939,83.143456 642.408386,149.193985 642.513672,215.670258 
	C642.526917,217.392807 642.468384,218.689621 642.387695,220.561203 
	C642.305176,221.448105 642.186157,221.735992 642.008484,221.999634 
z"/>
<path fill="#DDE3FA" opacity="1.000000" stroke="none" 
	d="
M69.016647,128.021393 
	C70.369278,134.044205 71.697403,140.067581 72.949921,146.400513 
	C69.480644,147.186295 70.007759,149.784149 70.006882,152.061600 
	C69.998352,174.160339 70.018021,196.259094 69.972359,218.357742 
	C69.968307,220.317215 69.559937,222.275879 68.829575,224.580261 
	C68.093536,224.885498 67.867279,224.845398 67.641022,224.805283 
	C67.764015,222.820267 67.992020,220.835373 67.994247,218.850220 
	C68.027878,188.894333 68.031860,158.938385 68.289757,128.505402 
	C68.536720,128.028320 68.974030,127.977051 68.974030,127.977051 
	C68.974030,127.977051 68.992142,128.021973 69.016647,128.021393 
z"/>
<path fill="#DFE7FC" opacity="1.000000" stroke="none" 
	d="
M68.877686,94.520576 
	C68.561409,93.339714 67.944878,91.809326 67.940208,90.277077 
	C67.867096,66.232742 67.878052,42.188168 67.851059,18.143671 
	C67.848770,16.101267 68.555397,13.529644 64.872856,13.397903 
	C65.419205,13.060337 66.128891,12.981007 66.838585,12.901676 
	C67.835884,14.559130 69.652397,16.194492 69.697784,17.877617 
	C69.996483,28.953676 70.027863,40.041245 69.909843,51.122540 
	C69.844597,57.248356 69.237930,63.366791 69.053185,69.493919 
	C68.997421,71.343269 69.538399,73.210602 69.806023,75.069702 
	C70.254623,75.090515 70.703217,75.111328 71.151817,75.132141 
	C72.389549,69.358055 73.532883,63.561073 74.924393,57.824284 
	C75.325020,56.172623 76.440765,54.694424 77.589325,53.454475 
	C75.251534,66.154236 72.553062,78.536217 69.854591,90.918205 
	C69.523750,92.002197 69.192909,93.086189 68.877686,94.520576 
z"/>
<path fill="#5661A6" opacity="1.000000" stroke="none" 
	d="
M119.002869,53.003208 
	C121.183792,43.553520 122.809326,33.928085 125.725952,24.711210 
	C127.954468,17.668858 126.890091,15.010469 119.551117,15.003714 
	C113.401169,14.998054 107.251198,15.003878 101.101242,15.004806 
	C90.315247,15.006433 87.595146,17.480024 85.955040,28.355574 
	C85.717041,29.933743 84.570496,31.374895 83.451515,32.548721 
	C84.398460,26.158062 85.738258,20.098133 87.078056,14.038204 
	C87.244835,13.945232 87.411606,13.852261 88.261383,13.697002 
	C101.953362,13.565625 114.962318,13.496535 127.971275,13.427444 
	C128.322418,14.646213 129.198654,15.989264 128.944107,17.064678 
	C126.157471,28.838190 123.194321,40.569927 119.879097,52.657307 
	C119.479050,53.001598 119.002869,53.003208 119.002869,53.003208 
z"/>
<path fill="#5863A7" opacity="1.000000" stroke="none" 
	d="
M118.849518,53.330215 
	C119.002869,53.003208 119.479050,53.001598 119.717117,53.000591 
	C115.903526,70.236198 112.256775,87.583290 107.598801,104.654472 
	C105.763214,111.381821 108.672897,116.959862 109.197006,123.488998 
	C108.530800,123.505783 107.373543,123.204361 107.279678,122.703613 
	C106.043594,116.109322 104.093735,109.724129 106.074577,102.713890 
	C108.890953,92.746689 110.575912,82.465645 113.070015,72.399399 
	C114.636871,66.075562 116.800362,59.899555 118.849518,53.330215 
z"/>
<path fill="#E8EAF8" opacity="1.000000" stroke="none" 
	d="
M67.199219,224.804474 
	C67.867279,224.845398 68.093536,224.885498 68.662476,224.963165 
	C65.985764,226.000031 62.999535,227.720535 59.940659,227.861191 
	C51.349659,228.256195 42.723694,228.161285 34.122982,227.892593 
	C31.847363,227.821533 29.613178,226.424225 27.178402,225.312454 
	C40.250359,224.927231 53.503883,224.865448 67.199219,224.804474 
z"/>
<path fill="#E8EAF8" opacity="1.000000" stroke="none" 
	d="
M601.956665,224.913773 
	C614.877075,224.855011 627.485291,224.825134 640.558777,224.875793 
	C631.453674,228.852112 621.383911,228.133942 611.426453,227.893539 
	C607.992554,227.810638 604.588501,226.488312 601.095215,225.363998 
	C601.227844,224.978104 601.436096,224.960373 601.956665,224.913773 
z"/>
<path fill="#5661A6" opacity="1.000000" stroke="none" 
	d="
M70.221207,90.883255 
	C72.553062,78.536217 75.251534,66.154236 77.942963,53.370941 
	C78.028824,52.568008 78.121719,52.166386 78.378281,51.407593 
	C78.541946,51.050423 78.911346,50.965683 78.911346,50.965683 
	C79.161034,53.322239 79.984550,55.788486 79.558762,58.015919 
	C77.919762,66.589958 76.009270,75.119316 73.912910,83.594315 
	C73.285385,86.131248 71.722298,88.436768 70.221207,90.883255 
z"/>
<path fill="#DFE7FC" opacity="1.000000" stroke="none" 
	d="
M127.802429,13.100534 
	C114.962318,13.496535 101.953362,13.565625 88.490738,13.525464 
	C89.930267,12.640551 91.829468,11.184804 93.715675,11.201435 
	C104.600082,11.297406 115.481674,11.733666 126.362862,12.095542 
	C126.793472,12.109861 127.210320,12.538195 127.802429,13.100534 
z"/>
<path fill="#5863A7" opacity="1.000000" stroke="none" 
	d="
M121.311317,171.629883 
	C119.555908,167.239624 117.626686,162.476822 116.047951,157.600525 
	C113.850677,150.813705 111.694809,143.996613 109.982201,137.078369 
	C109.336205,134.468796 109.975731,131.541016 110.065353,128.320831 
	C113.832260,142.324509 117.563057,156.765610 121.311317,171.629883 
z"/>
<path fill="#E1E5FA" opacity="1.000000" stroke="none" 
	d="
M211.021317,225.023590 
	C208.588074,225.878357 206.182434,227.372284 203.716888,227.478699 
	C192.238861,227.974121 180.582458,229.871490 169.576508,224.676819 
	C167.990814,223.928391 166.612503,222.740540 165.418243,221.389877 
	C166.793304,221.433365 167.888351,221.843018 169.237839,222.505676 
	C182.634232,227.557053 196.005661,227.693115 209.901062,224.810440 
	C210.522095,224.935638 210.771698,224.979614 211.021317,225.023590 
z"/>
<path fill="#E9F1FE" opacity="1.000000" stroke="none" 
	d="
M66.546875,12.632085 
	C66.128891,12.981007 65.419205,13.060337 64.472359,13.263094 
	C53.428169,13.463122 42.621128,13.539725 31.261967,13.448772 
	C30.483377,13.203250 30.282932,13.249902 30.108509,13.421173 
	C29.006273,13.526601 27.904036,13.632030 26.392742,13.819908 
	C25.990602,13.488196 25.997519,13.074035 26.005062,12.349840 
	C39.422180,12.147370 52.838673,12.254932 66.546875,12.632085 
z"/>
<path fill="#EAF0FF" opacity="1.000000" stroke="none" 
	d="
M637.000916,13.986940 
	C626.275208,13.896505 615.549500,13.806072 604.352661,13.626095 
	C604.258667,13.022222 604.633057,12.060912 605.013489,12.058508 
	C616.473145,11.986069 627.933533,12.001479 639.393494,12.055270 
	C639.675720,12.056594 639.955261,12.648106 639.866028,13.355040 
	C639.330078,13.823238 639.164185,13.900754 638.668152,13.901136 
	C637.892334,13.878316 637.446594,13.932628 637.000916,13.986940 
z"/>
<path fill="#E1E5FA" opacity="1.000000" stroke="none" 
	d="
M192.874207,11.458114 
	C187.176102,12.338371 181.358292,12.848756 174.888763,13.654873 
	C173.118301,14.285299 171.999573,14.619993 170.524658,14.992382 
	C168.721008,15.665674 167.273575,16.301271 165.613617,17.002403 
	C165.401123,17.067942 165.032623,17.317013 165.032623,17.317013 
	C164.244766,17.541927 163.456924,17.766844 162.363937,18.047558 
	C162.987976,14.444081 165.099060,12.953673 169.101669,12.700727 
	C175.489349,12.297054 181.804718,10.843533 188.180069,10.079360 
	C189.643555,9.903943 191.226532,10.725503 192.874207,11.458114 
z"/>
<path fill="#DFE7FC" opacity="1.000000" stroke="none" 
	d="
M86.697281,14.078675 
	C85.738258,20.098133 84.398460,26.158062 83.084221,32.617443 
	C82.997864,33.428478 82.885948,33.840057 82.582336,34.782253 
	C82.133293,36.027641 81.875961,36.742416 81.462372,37.341843 
	C81.306107,37.226494 80.993210,36.996296 80.993210,36.996296 
	C82.067673,29.987617 83.090950,22.970125 84.294006,15.983590 
	C84.417351,15.267261 85.616547,14.736186 86.697281,14.078675 
z"/>
<path fill="#D7DEF9" opacity="1.000000" stroke="none" 
	d="
M211.429962,225.014465 
	C210.771698,224.979614 210.522095,224.935638 210.218170,224.611237 
	C214.375519,222.472992 218.587189,220.615158 222.798859,218.757339 
	C222.798859,218.757339 222.927887,218.908264 222.993820,218.983536 
	C221.131592,224.460678 216.326370,224.433472 211.429962,225.014465 
z"/>
<path fill="#E1E5FA" opacity="1.000000" stroke="none" 
	d="
M155.042068,214.331818 
	C157.087769,215.292358 159.114716,216.673279 161.641739,218.383911 
	C162.819489,219.452515 163.497147,220.191422 164.174789,220.930344 
	C161.391678,220.367966 158.608566,219.805588 155.214310,219.119720 
	C155.162125,217.926453 155.092728,216.339325 155.042068,214.331818 
z"/>
<path fill="#DFE7FC" opacity="1.000000" stroke="none" 
	d="
M78.926514,50.633747 
	C78.911346,50.965683 78.541946,51.050423 78.357590,51.095383 
	C78.926071,46.585102 79.678917,42.029858 80.712486,37.235455 
	C80.993210,36.996296 81.306107,37.226494 81.407875,37.730011 
	C80.771904,41.831032 80.034172,45.428535 79.296440,49.026035 
	C79.178192,49.451294 79.059937,49.876553 78.926514,50.633747 
z"/>
<path fill="#E1E5FA" opacity="1.000000" stroke="none" 
	d="
M156.700226,21.041553 
	C155.281326,22.967964 153.471588,24.878229 151.379730,26.958046 
	C150.757355,23.319166 152.379059,21.186413 156.700226,21.041553 
z"/>
<path fill="#5863A5" opacity="1.000000" stroke="none" 
	d="
M164.384308,220.942871 
	C163.497147,220.191422 162.819489,219.452515 161.975739,218.461945 
	C161.809631,218.210312 161.939774,218.066437 162.332947,217.977356 
	C164.826904,218.918365 166.927689,219.948441 169.015228,221.296997 
	C168.995804,221.827866 168.989609,222.040268 168.983414,222.252686 
	C167.888351,221.843018 166.793304,221.433365 165.347031,221.050095 
	C164.995819,221.076477 164.593842,220.955414 164.384308,220.942871 
z"/>
<path fill="#E1E5FA" opacity="1.000000" stroke="none" 
	d="
M149.789307,28.120560 
	C148.987244,30.305592 147.806183,32.499863 146.345367,34.893684 
	C145.925522,32.169289 145.621368,29.166523 149.789307,28.120560 
z"/>
<path fill="#6F7071" opacity="1.000000" stroke="none" 
	d="
M522.670532,125.380569 
	C522.273987,123.994858 522.123779,122.603310 521.973633,121.211761 
	C522.288513,121.140594 522.603455,121.069427 522.918396,120.998268 
	C523.289246,122.148811 523.660095,123.299362 523.946777,124.803299 
	C523.524597,125.130402 523.209351,125.203079 522.670532,125.380569 
z"/>
<path fill="#EAF0FF" opacity="1.000000" stroke="none" 
	d="
M642.109863,222.324921 
	C642.186157,221.735992 642.305176,221.448105 642.496460,220.939575 
	C643.079407,221.578476 643.531555,222.413773 643.731384,223.621704 
	C643.131775,223.994049 642.784546,223.993744 642.437256,223.993439 
	C642.361938,223.545700 642.286621,223.097961 642.109863,222.324921 
z"/>
<path fill="#E1E5FA" opacity="1.000000" stroke="none" 
	d="
M159.702698,19.025826 
	C159.275299,19.687351 158.487793,20.349068 157.376923,21.056107 
	C157.816559,20.409626 158.579559,19.717821 159.702698,19.025826 
z"/>
<path fill="#4C549C" opacity="1.000000" stroke="none" 
	d="
M638.998291,13.978269 
	C639.164185,13.900754 639.330078,13.823238 639.745728,13.630611 
	C640.501526,13.598519 641.007629,13.681537 641.888062,13.862276 
	C642.241028,14.138186 642.219666,14.316375 642.109619,14.748783 
	C641.834167,15.013555 641.647278,15.024104 640.865540,15.038794 
	C639.847595,15.032815 639.424561,15.022697 639.000488,14.754003 
	C638.999084,14.323040 638.998718,14.150654 638.998291,13.978269 
z"/>
<path fill="#1F2022" opacity="1.000000" stroke="none" 
	d="
M363.216919,103.518997 
	C362.597290,103.660980 361.978363,103.392792 361.228149,102.795776 
	C361.803772,102.680901 362.510681,102.894859 363.216919,103.518997 
z"/>
<path fill="#E1E5FA" opacity="1.000000" stroke="none" 
	d="
M145.844910,35.204498 
	C145.954086,35.619938 145.802597,36.213425 145.399185,36.985352 
	C145.292938,36.570045 145.438599,35.976295 145.844910,35.204498 
z"/>
<path fill="#5863A7" opacity="1.000000" stroke="none" 
	d="
M110.158180,127.615540 
	C109.937538,127.415634 109.717674,126.892685 109.695221,126.204956 
	C109.981407,126.457611 110.070183,126.875046 110.158180,127.615540 
z"/>
<path fill="#E8EAF8" opacity="1.000000" stroke="none" 
	d="
M642.201660,224.189728 
	C642.784546,223.993744 643.131775,223.994049 643.739502,223.996582 
	C643.431946,224.300674 642.863953,224.602554 641.956238,224.897415 
	C641.733032,224.722275 641.849487,224.554153 642.201660,224.189728 
z"/>
<path fill="#222222" opacity="1.000000" stroke="none" 
	d="
M464.403748,49.665688 
	C464.100983,49.748863 463.900024,49.589451 463.720917,49.408398 
	C463.710358,49.397717 463.875732,49.212967 464.138916,49.012028 
	C464.382507,49.082645 464.446411,49.250473 464.403748,49.665688 
z"/>
<path fill="#E1E5FA" opacity="1.000000" stroke="none" 
	d="
M150.893555,27.165035 
	C150.951981,27.357697 150.766418,27.661278 150.322937,28.058918 
	C150.259872,27.860640 150.454727,27.568298 150.893555,27.165035 
z"/>
<path fill="#F2F2F4" opacity="1.000000" stroke="none" 
	d="
M523.039429,222.872284 
	C522.811157,222.802353 522.744629,222.638260 522.763733,222.222778 
	C522.966614,222.240295 523.083862,222.509232 523.039429,222.872284 
z"/>
<path fill="#F1F2F4" opacity="1.000000" stroke="none" 
	d="
M364.027466,222.869751 
	C363.798553,222.797546 363.734039,222.633636 363.754150,222.219376 
	C363.956451,222.238708 364.074158,222.508377 364.027466,222.869751 
z"/>
<path fill="#E1E5FA" opacity="1.000000" stroke="none" 
	d="
M161.882385,18.116161 
	C161.910706,18.314091 161.721069,18.587021 161.275955,18.846825 
	C161.168518,18.552755 161.383163,18.338577 161.882385,18.116161 
z"/>
<path fill="#1F2022" opacity="1.000000" stroke="none" 
	d="
M363.089050,223.168976 
	C363.050262,223.071106 362.923004,222.925125 362.795715,222.779129 
	C362.868225,222.831360 362.940704,222.883591 363.101715,223.053009 
	C363.190216,223.170197 363.000580,223.120880 363.089050,223.168976 
z"/>
<path fill="#5661A6" opacity="1.000000" stroke="none" 
	d="
M79.620491,48.922356 
	C80.034172,45.428535 80.771904,41.831032 81.564133,37.845360 
	C81.875961,36.742416 82.133293,36.027641 82.583557,35.103554 
	C85.257294,40.232246 82.220810,44.448154 79.620491,48.922356 
z"/>
<path fill="#5D67A9" opacity="1.000000" stroke="none" 
	d="
M68.982529,127.636398 
	C68.974030,127.977051 68.536720,128.028320 68.316772,128.040833 
	C67.640038,128.036102 67.183243,128.018890 66.384430,127.995361 
	C66.582191,126.936821 67.121964,125.884590 67.661736,124.832359 
	C68.104836,125.653488 68.547935,126.474609 68.982529,127.636398 
z"/>
<path fill="#DFE7FC" opacity="1.000000" stroke="none" 
	d="
M30.303616,13.497100 
	C30.282932,13.249902 30.483377,13.203250 30.797577,13.346694 
	C30.885309,13.412170 30.498722,13.573027 30.303616,13.497100 
z"/>
<path fill="#4A5ABA" opacity="1.000000" stroke="none" 
	d="
M169.028458,220.978516 
	C166.927689,219.948441 164.826904,218.918365 162.397827,217.905243 
	C158.297562,212.804855 154.471191,207.726517 150.766449,202.560974 
	C145.252640,194.873062 143.018814,186.132065 143.004837,176.800262 
	C142.957581,145.250641 143.029068,113.700775 142.941376,82.151314 
	C142.926224,76.694839 142.424072,71.235062 142.029953,65.785255 
	C141.217773,54.554115 143.959839,43.892780 149.210892,34.315308 
	C151.978134,29.268084 157.658432,25.829535 161.968918,21.608984 
	C163.084198,20.516983 163.994171,19.215286 165.015533,17.663464 
	C165.032623,17.317013 165.401123,17.067942 165.965698,17.050373 
	C168.700272,16.369045 170.870255,15.705290 173.366394,15.035186 
	C174.127380,15.019030 174.562210,15.009221 174.997025,14.999413 
	C180.249405,14.419767 185.490036,13.604731 190.758224,13.342118 
	C194.351013,13.163020 198.076874,13.323696 201.577484,14.089812 
	C209.935181,15.918907 218.428513,17.391592 225.237869,23.466249 
	C234.001556,31.284370 239.430740,40.932526 240.911163,52.421810 
	C243.438751,72.037880 241.657425,91.793098 241.935944,111.484512 
	C242.222961,131.776688 241.883484,152.076981 242.038803,172.372025 
	C242.130737,184.383148 238.481033,195.094940 232.041504,205.067505 
	C231.033218,206.628952 230.768906,208.670792 230.259460,210.888077 
	C230.358322,211.285645 230.325256,211.260269 229.904114,211.215652 
	C226.719864,212.940567 224.035583,214.850372 221.179916,216.455231 
	C209.072067,223.259766 196.374252,227.341873 182.285736,224.240936 
	C177.842545,223.262970 173.446228,222.072006 169.028458,220.978516 
M185.330246,52.077328 
	C184.864670,52.695114 184.399109,53.312901 183.234711,54.119865 
	C182.157913,56.959538 180.159637,59.794079 180.143814,62.639652 
	C179.936417,99.904427 179.903046,137.171555 180.183533,174.435394 
	C180.210220,177.982132 182.640228,181.510803 184.085175,185.747635 
	C189.023239,191.589050 194.812088,191.712646 200.044952,186.557938 
	C203.501221,183.153305 202.918228,179.080475 203.705872,175.312790 
	C208.787994,176.830154 206.905151,172.689026 206.911453,170.914108 
	C207.030807,137.286041 207.067810,103.657059 206.869186,70.029762 
	C206.853333,67.345520 204.993011,64.672180 203.973343,61.253422 
	C203.730637,59.646568 203.635757,57.999893 203.215775,56.440792 
	C202.203171,52.681633 199.814911,49.787380 195.967926,49.324829 
	C192.507629,48.908779 188.272263,47.321915 185.330246,52.077328 
z"/>
<path fill="#5560A6" opacity="1.000000" stroke="none" 
	d="
M169.015228,221.296997 
	C173.446228,222.072006 177.842545,223.262970 182.285736,224.240936 
	C196.374252,227.341873 209.072067,223.259766 221.179916,216.455231 
	C224.035583,214.850372 226.719864,212.940567 229.884155,211.212097 
	C227.921585,213.577103 225.557861,215.901077 222.996490,218.491180 
	C218.587189,220.615158 214.375519,222.472992 209.846756,224.530029 
	C196.005661,227.693115 182.634232,227.557053 169.237839,222.505676 
	C168.989609,222.040268 168.995804,221.827866 169.015228,221.296997 
z"/>
<path fill="#5863A5" opacity="1.000000" stroke="none" 
	d="
M174.990753,14.726595 
	C174.562210,15.009221 174.127380,15.019030 173.006104,15.019043 
	C171.840057,14.991060 171.360443,14.972874 170.880844,14.954687 
	C171.999573,14.619993 173.118301,14.285299 174.601013,13.929476 
	C174.971481,14.090156 174.977982,14.271966 174.990753,14.726595 
z"/>
<path fill="#B1B5E4" opacity="1.000000" stroke="none" 
	d="
M642.475708,16.971874 
	C642.288147,16.896139 642.234741,16.699354 642.265381,16.208441 
	C642.470581,16.111221 642.615601,16.298441 642.701355,16.509724 
	C642.736633,16.596727 642.644165,16.735559 642.475708,16.971874 
z"/>
<path fill="#4A5ABA" opacity="1.000000" stroke="none" 
	d="
M639.001526,15.012579 
	C639.424561,15.022697 639.847595,15.032815 640.585693,15.060426 
	C640.930176,83.737587 640.959656,152.397263 640.985352,221.524780 
	C638.045593,222.326401 635.105347,222.974457 632.174377,222.934464 
	C623.722534,222.819153 615.273987,222.437775 606.825073,222.136459 
	C603.843384,222.030136 602.784668,220.287735 602.994568,217.496567 
	C603.056824,216.669113 603.003723,215.832977 603.003723,215.000824 
	C603.004089,150.757889 603.003601,86.514946 603.005981,22.272007 
	C603.006287,15.012745 603.013855,15.006083 610.098938,15.003297 
	C618.753418,14.999895 627.407959,15.009105 636.864746,15.011631 
	C638.111816,15.011127 638.556702,15.011853 639.001526,15.012579 
z"/>
<path fill="#535CA1" opacity="1.000000" stroke="none" 
	d="
M639.000488,14.754002 
	C638.556702,15.011853 638.111816,15.011127 637.333374,15.009376 
	C636.999817,14.838128 636.999939,14.667907 637.000488,14.242312 
	C637.446594,13.932628 637.892334,13.878316 638.668152,13.901136 
	C638.998718,14.150654 638.999084,14.323040 639.000488,14.754002 
z"/>
<path fill="#5560A6" opacity="1.000000" stroke="none" 
	d="
M170.524658,14.992382 
	C171.360443,14.972874 171.840057,14.991060 172.679947,15.025391 
	C170.870255,15.705290 168.700272,16.369045 166.178207,16.984835 
	C167.273575,16.301271 168.721008,15.665674 170.524658,14.992382 
z"/>
<path fill="#4C5AB3" opacity="1.000000" stroke="none" 
	d="
M203.989838,61.993774 
	C204.993011,64.672180 206.853333,67.345520 206.869186,70.029762 
	C207.067810,103.657059 207.030807,137.286041 206.911453,170.914108 
	C206.905151,172.689026 208.787994,176.830154 203.353973,174.691772 
	C203.000793,138.616516 202.984177,103.162254 203.040497,67.708099 
	C203.043518,65.802826 203.659302,63.898525 203.989838,61.993774 
z"/>
<path fill="#5863A5" opacity="1.000000" stroke="none" 
	d="
M183.954498,185.047852 
	C182.640228,181.510803 180.210220,177.982132 180.183533,174.435394 
	C179.903046,137.171555 179.936417,99.904427 180.143814,62.639652 
	C180.159637,59.794079 182.157913,56.959538 183.646378,54.087624 
	C184.058044,54.055378 184.183487,54.179123 184.022675,54.522678 
	C183.212234,58.741806 182.015671,62.614986 181.998688,66.493324 
	C181.849640,100.553505 181.812469,134.615189 182.011124,168.674835 
	C182.042542,174.063416 183.419250,179.444153 184.118927,184.883163 
	C184.063889,184.937820 183.954498,185.047852 183.954498,185.047852 
z"/>
<path fill="#5863A5" opacity="1.000000" stroke="none" 
	d="
M203.981598,61.623596 
	C203.659302,63.898525 203.043518,65.802826 203.040497,67.708099 
	C202.984177,103.162254 203.000793,138.616516 203.010406,174.540527 
	C202.918228,179.080475 203.501221,183.153305 200.044952,186.557938 
	C194.812088,191.712646 189.023239,191.589050 184.019836,185.397736 
	C183.954498,185.047852 184.063889,184.937820 184.461578,184.986664 
	C193.357788,190.845657 199.464584,188.212799 201.016739,177.952347 
	C201.513214,174.670471 201.815552,171.325195 201.820847,168.008301 
	C201.874207,134.517349 201.862076,101.026260 201.814865,67.535286 
	C201.811127,64.885391 201.581223,62.207947 201.158066,59.591557 
	C199.702560,50.592049 194.628159,48.115429 186.089935,52.092247 
	C186.039017,52.041092 185.936096,51.939846 185.936096,51.939846 
	C188.272263,47.321915 192.507629,48.908779 195.967926,49.324829 
	C199.814911,49.787380 202.203171,52.681633 203.215775,56.440792 
	C203.635757,57.999893 203.730637,59.646568 203.981598,61.623596 
z"/>
<path fill="#5863A5" opacity="1.000000" stroke="none" 
	d="
M183.995789,53.993034 
	C184.399109,53.312901 184.864670,52.695114 185.633179,52.008587 
	C185.936096,51.939846 186.039017,52.041092 185.954468,52.345024 
	C185.307785,53.159016 184.745636,53.669067 184.183487,54.179123 
	C184.183487,54.179123 184.058044,54.055378 183.995789,53.993034 
z"/>
<path fill="#D9E0F8" opacity="1.000000" stroke="none" 
	d="
M184.022675,54.522678 
	C184.745636,53.669067 185.307785,53.159016 186.005402,52.396179 
	C194.628159,48.115429 199.702560,50.592049 201.158066,59.591557 
	C201.581223,62.207947 201.811127,64.885391 201.814865,67.535286 
	C201.862076,101.026260 201.874207,134.517349 201.820847,168.008301 
	C201.815552,171.325195 201.513214,174.670471 201.016739,177.952347 
	C199.464584,188.212799 193.357788,190.845657 184.516617,184.932007 
	C183.419250,179.444153 182.042542,174.063416 182.011124,168.674835 
	C181.812469,134.615189 181.849640,100.553505 181.998688,66.493324 
	C182.015671,62.614986 183.212234,58.741806 184.022675,54.522678 
M184.991669,102.500000 
	C184.992294,126.637413 184.992676,150.774826 184.994293,174.912247 
	C184.994370,176.077438 184.864120,177.264069 185.037231,178.403854 
	C185.573975,181.937653 187.240143,185.164368 190.981049,185.261871 
	C193.001526,185.314529 195.831604,183.470032 196.960419,181.651932 
	C198.606232,179.001160 199.860382,175.608078 199.879028,172.522964 
	C200.079178,139.397644 200.043518,106.270546 199.958237,73.144234 
	C199.945908,68.356018 199.517975,63.544819 198.891266,58.795876 
	C198.684647,57.230324 197.602783,55.126015 196.309952,54.466923 
	C189.248489,50.866970 185.037308,53.583694 185.008865,61.548450 
	C184.961319,74.865479 184.993164,88.182800 184.991669,102.500000 
z"/>
<path fill="#E7EAEA" opacity="1.000000" stroke="none" 
	d="
M184.991638,102.000000 
	C184.993164,88.182800 184.961319,74.865479 185.008865,61.548450 
	C185.037308,53.583694 189.248489,50.866970 196.309952,54.466923 
	C197.602783,55.126015 198.684647,57.230324 198.891266,58.795876 
	C199.517975,63.544819 199.945908,68.356018 199.958237,73.144234 
	C200.043518,106.270546 200.079178,139.397644 199.879028,172.522964 
	C199.860382,175.608078 198.606232,179.001160 196.960419,181.651932 
	C195.831604,183.470032 193.001526,185.314529 190.981049,185.261871 
	C187.240143,185.164368 185.573975,181.937653 185.037231,178.403854 
	C184.864120,177.264069 184.994370,176.077438 184.994293,174.912247 
	C184.992676,150.774826 184.992294,126.637413 184.991638,102.000000 
z"/>
</svg>